<svg width="1024" height="1024" viewBox="0 0 1024 1024" fill="none" xmlns="http://www.w3.org/2000/svg">
  <!-- Background Circle -->
  <circle cx="512" cy="512" r="512" fill="#8B4513"/>
  
  <!-- Guitar Body -->
  <ellipse cx="512" cy="600" rx="180" ry="100" fill="#D2691E" stroke="#654321" stroke-width="6"/>
  
  <!-- Guitar Neck -->
  <rect x="420" y="220" width="70" height="380" fill="#CD853F" stroke="#8B4513" stroke-width="3"/>
  
  <!-- Guitar Head -->
  <rect x="405" y="140" width="100" height="80" rx="8" fill="#CD853F" stroke="#8B4513" stroke-width="3"/>
  
  <!-- Tuning Pegs -->
  <circle cx="415" cy="155" r="6" fill="#654321"/>
  <circle cx="435" cy="155" r="6" fill="#654321"/>
  <circle cx="455" cy="155" r="6" fill="#654321"/>
  <circle cx="475" cy="155" r="6" fill="#654321"/>
  <circle cx="415" cy="185" r="6" fill="#654321"/>
  <circle cx="435" cy="185" r="6" fill="#654321"/>
  
  <!-- Sound Hole -->
  <circle cx="512" cy="600" r="35" fill="#000000"/>
  <circle cx="512" cy="600" r="30" fill="#8B4513"/>
  
  <!-- Bridge -->
  <rect x="497" y="670" width="30" height="6" fill="#654321"/>
  
  <!-- Strings -->
  <line x1="420" y1="220" x2="497" y2="670" stroke="#E6E6FA" stroke-width="1.5"/>
  <line x1="435" y1="220" x2="497" y2="670" stroke="#E6E6FA" stroke-width="1.5"/>
  <line x1="450" y1="220" x2="497" y2="670" stroke="#E6E6FA" stroke-width="1.5"/>
  <line x1="465" y1="220" x2="497" y2="670" stroke="#E6E6FA" stroke-width="1.5"/>
  <line x1="420" y1="220" x2="497" y2="670" stroke="#E6E6FA" stroke-width="1.5"/>
  <line x1="435" y1="220" x2="497" y2="670" stroke="#E6E6FA" stroke-width="1.5"/>
  
  <!-- Fret Lines -->
  <line x1="420" y1="290" x2="490" y2="290" stroke="#8B4513" stroke-width="2"/>
  <line x1="420" y1="360" x2="490" y2="360" stroke="#8B4513" stroke-width="2"/>
  <line x1="420" y1="430" x2="490" y2="430" stroke="#8B4513" stroke-width="2"/>
  <line x1="420" y1="500" x2="490" y2="500" stroke="#8B4513" stroke-width="2"/>
  
  <!-- Band Aid Cross -->
  <rect x="680" y="420" width="160" height="60" rx="15" fill="#FFFFFF" stroke="#FF6B6B" stroke-width="4"/>
  <rect x="730" y="380" width="15" height="140" fill="#FF6B6B"/>
  <rect x="680" y="420" width="160" height="15" fill="#FF6B6B"/>
  
  <!-- Musical Notes -->
  <circle cx="730" cy="320" r="12" fill="#FF6B6B"/>
  <path d="M730 308 L730 280 L750 280 L750 308" stroke="#FF6B6B" stroke-width="3" fill="none"/>
  
  <circle cx="770" cy="340" r="12" fill="#FF6B6B"/>
  <path d="M770 328 L770 300 L790 300 L790 328" stroke="#FF6B6B" stroke-width="3" fill="none"/>
</svg>
